<svg width="190" height="120" viewBox="0 0 190 120" fill="none" xmlns="http://www.w3.org/2000/svg">
<path fill-rule="evenodd" clip-rule="evenodd" d="M185 55L95 5L5 55L36.423 72.4572C44.8039 58.7986 67.6412 49 94.5 49C121.631 49 144.659 58.9983 152.827 72.8737L185 55Z" fill="#00C371"/>
<path fill-rule="evenodd" clip-rule="evenodd" d="M92.5718 0.629214C94.0819 -0.209738 95.9181 -0.209738 97.4282 0.629214L187.428 50.6292C189.016 51.5111 190 53.1842 190 55C190 56.8158 189.016 58.4889 187.428 59.3708L155.256 77.2445C152.884 78.5619 149.895 77.7481 148.519 75.4103C145.172 69.7258 138.43 64.337 128.853 60.3495C119.355 56.3953 107.478 54 94.5 54C81.6531 54 69.8832 56.3472 60.433 60.2313C50.9065 64.1467 44.1341 69.4505 40.6847 75.0722C39.2845 77.3542 36.3352 78.1282 33.9948 76.828L2.57179 59.3708C0.984459 58.4889 0 56.8158 0 55C0 53.1842 0.984459 51.5111 2.57179 50.6292L92.5718 0.629214ZM95 5L185 55L152.827 72.8737C144.659 58.9983 121.631 49 94.5 49C67.6412 49 44.8039 58.7986 36.423 72.4572L5 55L95 5Z" fill="#00C371"/>
<path d="M147 89.8529C147 106.34 123.495 119.706 94.5 119.706C65.5051 119.706 42 106.34 42 89.8529C42 73.3656 65.5051 60 94.5 60C123.495 60 147 73.3656 147 89.8529Z" fill="#00C371"/>
</svg>
